<?xml version="1.0" encoding="utf-8"?>
<!-- Generator: Adobe Illustrator 17.0.0, SVG Export Plug-In . SVG Version: 6.00 Build 0)  -->
<!DOCTYPE svg PUBLIC "-//W3C//DTD SVG 1.1//EN" "http://www.w3.org/Graphics/SVG/1.1/DTD/svg11.dtd">
<svg version="1.1" id="Layer_1" xmlns="http://www.w3.org/2000/svg" xmlns:xlink="http://www.w3.org/1999/xlink" x="0px" y="0px"
	 width="492.086px" height="492px" viewBox="0 -89.5 492.086 492" enable-background="new 0 -89.5 492.086 492"
	 xml:space="preserve">
<g>
	<path fill="#55818C" d="M213.921,301.109c24.035,0,40.973-2.113,42.898-2.363c6.742-0.883,12.047-6.188,12.93-12.93
		c0.133-1.031,0.805-6.391,1.395-14.84c2.57,0.051,5.219,0.082,7.961,0.082c18.387,0,40.438-1.227,63.063-5.266
		c41.938-7.492,74.563-22.656,96.973-45.066c64.988-64.988,52.117-200.184,51.539-205.906c-0.719-7.09-6.324-12.695-13.41-13.414
		c-5.727-0.578-140.922-13.449-205.91,51.539c-13.465,13.465-24.313,30.668-32.461,51.348c-4.977-7.652-10.66-14.84-17.172-21.348
		C156.738,17.953,21.539,30.824,15.816,31.402C8.73,32.121,3.125,37.727,2.406,44.816c-0.578,5.723-13.449,140.918,51.539,205.906
		C96.679,293.457,168.167,301.109,213.921,301.109z M141.832,192.039H50.617c-15.824-36.434-19.285-80.891-19.516-110.73
		L141.832,192.039z M183.148,269.766c-61.227-5.238-92.52-24.781-107.992-40.254c-2.363-2.363-4.598-4.863-6.719-7.477h103.391
		l48.941,48.945C209.875,271.168,196.949,270.945,183.148,269.766z M417.929,199.516c-37.387,37.387-106.316,42.145-145.625,41.477
		l91.949-91.949h83.156C438.675,174.281,427.484,189.961,417.929,199.516z M459.992,88.922c-1.133,10.965-2.68,20.969-4.527,30.125
		H394.25l67.77-67.77C461.937,62.215,461.414,75.125,459.992,88.922z M330.043,140.832V49.617
		c36.438-15.82,80.891-19.285,110.73-19.516L330.043,140.832z M292.57,74.156c2.363-2.363,4.867-4.598,7.477-6.719v103.391
		l-30.184,30.188c-2.027-18.254-5.676-37.672-11.906-56.355C264.796,114.023,276.421,90.305,292.57,74.156z M227.984,149.625
		c0.176,0.629,0.391,1.238,0.648,1.832c11.801,33.715,13.773,71.961,13.324,98.289l-91.914-91.914v-83.16
		c25.238,8.738,40.918,19.926,50.473,29.48C212.941,116.578,221.765,132.473,227.984,149.625z M120.046,66.617v61.215L52.281,60.066
		c10.938,0.082,23.844,0.602,37.641,2.027C100.886,63.227,110.89,64.77,120.046,66.617z"/>
</g>
</svg>
